%
M48
M72
T01C0.0354
%
T01
X3053Y3486
X4037Y3486
X5021Y3486
X6006Y3486
X8958Y3486
X9943Y3486
X10927Y3486
X11911Y3486
X12895Y3486
X13880Y3486
X14864Y3486
X15848Y3486
X16832Y3486
X17817Y3486
X18801Y3486
X19785Y3486
X20769Y3486
X21754Y3486
X22738Y3486
X23722Y3486
X24706Y3486
X25691Y3486
X26675Y3486
X27659Y3486
X28643Y3486
X29628Y3486
X30612Y3486
X33565Y3486
X34549Y3486
X35533Y3486
X36517Y3486
X36517Y1517
X35533Y1517
X34549Y1517
X33565Y1517
X30612Y1517
X29628Y1517
X28643Y1517
X27659Y1517
X26675Y1517
X25691Y1517
X24706Y1517
X23722Y1517
X22738Y1517
X21754Y1517
X20769Y1517
X19785Y1517
X18801Y1517
X17817Y1517
X16832Y1517
X15848Y1517
X14864Y1517
X13880Y1517
X12895Y1517
X11911Y1517
X10927Y1517
X9943Y1517
X8958Y1517
X6006Y1517
X5021Y1517
X4037Y1517
X3053Y1517
M30
